<mxfile host="app.diagrams.net" modified="2024-07-29T20:03:40.717Z" agent="Mozilla/5.0 (Windows NT 10.0; Win64; x64) AppleWebKit/537.36 (KHTML, like Gecko) Chrome/127.0.0.0 Safari/537.36" version="24.7.1" etag="GcKmgZXYwnbkh3NO-Am_" type="github">
  <diagram name="Page-1" id="keX0XR5txJp0cMky9zZ0">
    <mxGraphModel>
      <root>
        <mxCell id="0" />
        <mxCell id="1" parent="0" />
      </root>
    </mxGraphModel>
  </diagram>
</mxfile>
